<?xml version="1.0" encoding="UTF-8"?>
<svg xmlns="http://www.w3.org/2000/svg" xmlns:xlink="http://www.w3.org/1999/xlink" width="120pt" height="120pt" viewBox="0 0 120 120" version="1.1">
<defs>
<filter id="alpha" filterUnits="objectBoundingBox" x="0%" y="0%" width="100%" height="100%">
  <feColorMatrix type="matrix" in="SourceGraphic" values="0 0 0 0 1 0 0 0 0 1 0 0 0 0 1 0 0 0 1 0"/>
</filter>
<mask id="mask0">
  <g filter="url(#alpha)">
<rect x="0" y="0" width="120" height="120" style="fill:rgb(0%,0%,0%);fill-opacity:0.2;stroke:none;"/>
  </g>
</mask>
<clipPath id="clip1">
  <rect x="0" y="0" width="120" height="120"/>
</clipPath>
<g id="surface5" clip-path="url(#clip1)">
<path style=" stroke:none;fill-rule:nonzero;fill:rgb(0%,0%,0%);fill-opacity:1;" d="M 94.40625 13.992188 C 101.902344 23.933594 105.945312 36.050781 105.925781 48.503906 C 105.925781 80.21875 80.214844 105.929688 48.5 105.929688 C 36.121094 105.945312 24.070312 101.945312 14.160156 94.527344 C 25 108.964844 42.003906 117.453125 60.058594 117.4375 C 91.777344 117.4375 117.484375 91.730469 117.484375 60.015625 C 117.5 41.886719 108.941406 24.824219 94.40625 13.992188 Z M 94.40625 13.992188 "/>
</g>
</defs>
<g id="surface1">
<path style=" stroke:none;fill-rule:nonzero;fill:rgb(70.196078%,50.588235%,29.411765%);fill-opacity:1;" d="M 117.480469 60.015625 C 117.480469 91.730469 91.769531 117.441406 60.054688 117.441406 C 28.335938 117.441406 2.625 91.730469 2.625 60.015625 C 2.625 28.296875 28.335938 2.585938 60.054688 2.585938 C 91.769531 2.585938 117.480469 28.296875 117.480469 60.015625 Z M 117.480469 60.015625 "/>
<path style=" stroke:none;fill-rule:nonzero;fill:rgb(31.764706%,23.137255%,17.254902%);fill-opacity:1;" d="M 61.515625 60.722656 C 61.515625 69.058594 54.761719 75.8125 46.425781 75.8125 C 38.089844 75.8125 31.335938 69.058594 31.335938 60.722656 C 31.335938 52.386719 38.089844 45.632812 46.425781 45.632812 C 54.761719 45.632812 61.515625 52.386719 61.515625 60.722656 Z M 61.515625 60.722656 "/>
<path style=" stroke:none;fill-rule:nonzero;fill:rgb(31.764706%,23.137255%,17.254902%);fill-opacity:1;" d="M 64.203125 20.976562 C 64.203125 26.769531 59.507812 31.464844 53.714844 31.464844 C 47.921875 31.464844 43.226562 26.769531 43.226562 20.976562 C 43.226562 15.1875 47.921875 10.492188 53.714844 10.492188 C 59.507812 10.492188 64.203125 15.1875 64.203125 20.976562 Z M 64.203125 20.976562 "/>
<path style=" stroke:none;fill-rule:nonzero;fill:rgb(31.764706%,23.137255%,17.254902%);fill-opacity:1;" d="M 73.15625 93.542969 C 73.15625 98.488281 69.144531 102.496094 64.203125 102.496094 C 59.257812 102.496094 55.25 98.488281 55.25 93.542969 C 55.25 88.601562 59.257812 84.59375 64.203125 84.59375 C 69.144531 84.59375 73.15625 88.601562 73.15625 93.542969 Z M 73.15625 93.542969 "/>
<path style=" stroke:none;fill-rule:nonzero;fill:rgb(31.764706%,23.137255%,17.254902%);fill-opacity:1;" d="M 94.308594 56.765625 C 94.308594 61.707031 90.300781 65.71875 85.359375 65.71875 C 80.414062 65.71875 76.40625 61.707031 76.40625 56.765625 C 76.40625 51.820312 80.414062 47.8125 85.359375 47.8125 C 90.300781 47.8125 94.308594 51.820312 94.308594 56.765625 Z M 94.308594 56.765625 "/>
<path style=" stroke:none;fill-rule:nonzero;fill:rgb(31.764706%,23.137255%,17.254902%);fill-opacity:1;" d="M 2.640625 61.324219 C 6.472656 63.464844 11.234375 62.992188 14.574219 60.136719 C 17.910156 57.28125 19.113281 52.652344 17.59375 48.53125 C 16.070312 44.414062 12.144531 41.679688 7.753906 41.679688 C 7.007812 41.679688 6.265625 41.761719 5.535156 41.917969 C 3.601562 47.757812 2.617188 53.867188 2.625 60.019531 C 2.625 60.453125 2.640625 60.886719 2.640625 61.324219 Z M 2.640625 61.324219 "/>
<path style=" stroke:none;fill-rule:nonzero;fill:rgb(31.764706%,23.137255%,17.254902%);fill-opacity:1;" d="M 24.441406 87.171875 C 19.90625 87.171875 15.695312 89.523438 13.316406 93.386719 C 18.371094 100.457031 24.957031 106.289062 32.585938 110.457031 C 36.929688 106.996094 38.609375 101.167969 36.773438 95.925781 C 34.941406 90.683594 29.996094 87.175781 24.441406 87.175781 Z M 24.441406 87.171875 "/>
<path style=" stroke:none;fill-rule:nonzero;fill:rgb(31.764706%,23.137255%,17.254902%);fill-opacity:1;" d="M 111.976562 35.460938 C 108.203125 27.5 102.65625 20.511719 95.761719 15.03125 C 90.570312 19.636719 89.886719 27.496094 94.203125 32.929688 C 98.515625 38.363281 106.328125 39.476562 111.988281 35.460938 Z M 111.976562 35.460938 "/>
<path style=" stroke:none;fill-rule:nonzero;fill:rgb(31.764706%,23.137255%,17.254902%);fill-opacity:1;" d="M 104.410156 77.640625 C 98.316406 77.636719 93.023438 81.847656 91.660156 87.789062 C 90.296875 93.734375 93.226562 99.828125 98.71875 102.480469 C 105.164062 96.613281 110.191406 89.355469 113.421875 81.257812 C 110.996094 78.933594 107.769531 77.636719 104.410156 77.640625 Z M 104.410156 77.640625 "/>
<use xlink:href="#surface5" mask="url(#mask0)"/>
<path style="fill:none;stroke-width:20;stroke-linecap:round;stroke-linejoin:round;stroke:rgb(0%,0%,0%);stroke-opacity:1;stroke-miterlimit:4;" d="M 489.501953 250.065104 C 489.501953 382.210286 382.373047 489.339193 250.227865 489.339193 C 118.066406 489.339193 10.9375 382.210286 10.9375 250.065104 C 10.9375 117.903646 118.066406 10.77474 250.227865 10.77474 C 382.373047 10.77474 489.501953 117.903646 489.501953 250.065104 Z M 489.501953 250.065104 " transform="matrix(0.24,0,0,0.24,0,0)"/>
<path style="fill:none;stroke-width:20;stroke-linecap:round;stroke-linejoin:round;stroke:rgb(0%,0%,0%);stroke-opacity:1;stroke-miterlimit:4;" d="M 256.315104 253.011068 C 256.315104 287.744141 228.173828 315.885417 193.440755 315.885417 C 158.707682 315.885417 130.566406 287.744141 130.566406 253.011068 C 130.566406 218.277995 158.707682 190.136719 193.440755 190.136719 C 228.173828 190.136719 256.315104 218.277995 256.315104 253.011068 Z M 256.315104 253.011068 " transform="matrix(0.24,0,0,0.24,0,0)"/>
<path style="fill:none;stroke-width:20;stroke-linecap:round;stroke-linejoin:round;stroke:rgb(0%,0%,0%);stroke-opacity:1;stroke-miterlimit:4;" d="M 267.513021 87.402344 C 267.513021 111.539714 247.949219 131.103516 223.811849 131.103516 C 199.674479 131.103516 180.110677 111.539714 180.110677 87.402344 C 180.110677 63.28125 199.674479 43.717448 223.811849 43.717448 C 247.949219 43.717448 267.513021 63.28125 267.513021 87.402344 Z M 267.513021 87.402344 " transform="matrix(0.24,0,0,0.24,0,0)"/>
<path style="fill:none;stroke-width:20;stroke-linecap:round;stroke-linejoin:round;stroke:rgb(0%,0%,0%);stroke-opacity:1;stroke-miterlimit:4;" d="M 304.817708 389.76237 C 304.817708 410.367839 288.102214 427.067057 267.513021 427.067057 C 246.907552 427.067057 230.208333 410.367839 230.208333 389.76237 C 230.208333 369.173177 246.907552 352.473958 267.513021 352.473958 C 288.102214 352.473958 304.817708 369.173177 304.817708 389.76237 Z M 304.817708 389.76237 " transform="matrix(0.24,0,0,0.24,0,0)"/>
<path style="fill:none;stroke-width:20;stroke-linecap:round;stroke-linejoin:round;stroke:rgb(0%,0%,0%);stroke-opacity:1;stroke-miterlimit:4;" d="M 392.952474 236.523438 C 392.952474 257.11263 376.253255 273.828125 355.664062 273.828125 C 335.058594 273.828125 318.359375 257.11263 318.359375 236.523438 C 318.359375 215.917969 335.058594 199.21875 355.664062 199.21875 C 376.253255 199.21875 392.952474 215.917969 392.952474 236.523438 Z M 392.952474 236.523438 " transform="matrix(0.24,0,0,0.24,0,0)"/>
<path style="fill:none;stroke-width:20;stroke-linecap:round;stroke-linejoin:round;stroke:rgb(0%,0%,0%);stroke-opacity:1;stroke-miterlimit:4;" d="M 11.002604 255.517578 C 26.969401 264.436849 46.809896 262.467448 60.725911 250.569661 C 74.625651 238.671875 79.638672 219.384766 73.307292 202.213542 C 66.959635 185.058594 50.602214 173.665365 32.307943 173.665365 C 29.199219 173.665365 26.106771 174.007161 23.063151 174.658203 C 15.00651 198.990885 10.904948 224.446615 10.9375 250.08138 C 10.9375 251.888021 11.002604 253.694661 11.002604 255.517578 Z M 11.002604 255.517578 " transform="matrix(0.24,0,0,0.24,0,0)"/>
<path style="fill:none;stroke-width:20;stroke-linecap:round;stroke-linejoin:round;stroke:rgb(0%,0%,0%);stroke-opacity:1;stroke-miterlimit:4;" d="M 101.839193 363.216146 C 82.942708 363.216146 65.397135 373.014323 55.485026 389.111328 C 76.546224 418.570964 103.98763 442.871094 135.77474 460.23763 C 153.873698 445.817057 160.872396 421.533203 153.222656 399.690755 C 145.589193 377.848307 124.983724 363.232422 101.839193 363.232422 Z M 101.839193 363.216146 " transform="matrix(0.24,0,0,0.24,0,0)"/>
<path style="fill:none;stroke-width:20;stroke-linecap:round;stroke-linejoin:round;stroke:rgb(0%,0%,0%);stroke-opacity:1;stroke-miterlimit:4;" d="M 466.56901 147.753906 C 450.846354 114.583333 427.734375 85.465495 399.007161 62.630208 C 377.376302 81.819661 374.527995 114.567057 392.513021 137.207031 C 410.481771 159.847005 443.033854 164.485677 466.617839 147.753906 Z M 466.56901 147.753906 " transform="matrix(0.24,0,0,0.24,0,0)"/>
<path style="fill:none;stroke-width:20;stroke-linecap:round;stroke-linejoin:round;stroke:rgb(0%,0%,0%);stroke-opacity:1;stroke-miterlimit:4;" d="M 435.042318 323.502604 C 409.651693 323.486328 387.597656 341.031901 381.917318 365.78776 C 376.236979 390.559896 388.44401 415.950521 411.328125 427.001953 C 438.183594 402.555339 459.130859 372.314453 472.591146 338.574219 C 462.483724 328.889974 449.039714 323.486328 435.042318 323.502604 Z M 435.042318 323.502604 " transform="matrix(0.24,0,0,0.24,0,0)"/>
</g>
</svg>
